<svg width="35" height="35" viewBox="0 0 35 35" fill="none" xmlns="http://www.w3.org/2000/svg">
<path d="M27.6208 26.2006H13.5729L12.7047 22.7276H31.0633L35 6.98081H8.76803L7.38437 1.44611H0V3.50775H5.77465L11.4684 26.2829C9.81092 26.6388 8.56439 28.1149 8.56439 29.8772C8.56439 31.9045 10.2137 33.5538 12.241 33.5538C14.2684 33.5538 15.9177 31.9044 15.9177 29.8772C15.9177 29.2981 15.7826 28.75 15.543 28.2622H24.3188C24.0792 28.75 23.9442 29.2981 23.9442 29.8772C23.9442 31.9045 25.5936 33.5538 27.6208 33.5538C29.6481 33.5538 31.2975 31.9044 31.2975 29.8772C31.2974 27.8499 29.648 26.2006 27.6208 26.2006Z" fill="#442B27"/>
</svg>
