<svg width="284" height="29" viewBox="0 0 284 29" fill="none" xmlns="http://www.w3.org/2000/svg">
<path d="M0.044 2.8H9.908V3.844C9.332 4.06 8.756 4.252 8.18 4.42C7.604 4.564 7.028 4.672 6.452 4.744V26.128H14.732L16.856 20.332H17.792C17.864 20.836 17.924 21.424 17.972 22.096C18.044 22.744 18.092 23.428 18.116 24.148C18.164 24.844 18.188 25.528 18.188 26.2C18.188 26.872 18.176 27.472 18.152 28H0.044V26.956C0.62 26.692 1.148 26.5 1.628 26.38C2.108 26.26 2.564 26.164 2.996 26.092V4.744C2.444 4.648 1.916 4.528 1.412 4.384C0.908 4.216 0.452 4.036 0.044 3.844V2.8ZM28.2258 28H20.2338V27.1C20.5938 26.908 20.9658 26.752 21.3498 26.632C21.7338 26.488 22.1538 26.356 22.6098 26.236V12.088L20.2338 11.8V10.864C20.9298 10.576 21.6858 10.324 22.5018 10.108C23.3178 9.892 24.1338 9.712 24.9498 9.568H25.8498V26.236C26.3298 26.356 26.7618 26.488 27.1458 26.632C27.5298 26.752 27.8898 26.908 28.2258 27.1V28ZM21.9258 3.88C21.9258 3.232 22.1298 2.716 22.5378 2.332C22.9698 1.948 23.5338 1.756 24.2298 1.756C24.9258 1.756 25.4778 1.948 25.8858 2.332C26.2938 2.716 26.4978 3.232 26.4978 3.88C26.4978 4.528 26.2938 5.044 25.8858 5.428C25.4778 5.788 24.9258 5.968 24.2298 5.968C23.5338 5.968 22.9698 5.788 22.5378 5.428C22.1298 5.044 21.9258 4.528 21.9258 3.88ZM38.1539 28.432L31.1339 11.8C30.4379 11.56 29.8019 11.272 29.2259 10.936V10H36.7499V10.9C36.4379 11.068 36.1139 11.236 35.7779 11.404C35.4659 11.548 35.1059 11.68 34.6979 11.8L38.8739 22.636L39.5939 24.868H39.6659L40.2059 22.6L44.0579 11.8C43.6739 11.704 43.3139 11.584 42.9779 11.44C42.6659 11.296 42.3659 11.128 42.0779 10.936V10H48.1979V10.936C47.9579 11.104 47.6579 11.26 47.2979 11.404C46.9619 11.548 46.5779 11.68 46.1459 11.8L39.7739 28L38.1539 28.432ZM56.616 12.7C56.352 12.844 56.016 13.144 55.608 13.6C55.224 14.032 54.876 14.68 54.564 15.544V26.236C55.044 26.284 55.524 26.38 56.004 26.524C56.484 26.644 56.964 26.836 57.444 27.1V28H48.948V27.1C49.38 26.86 49.788 26.68 50.172 26.56C50.556 26.44 50.94 26.332 51.324 26.236V12.088L48.948 11.8V10.864C49.716 10.528 50.508 10.264 51.324 10.072C52.14 9.856 52.92 9.688 53.664 9.568H54.564V13.384H54.708C54.924 12.904 55.224 12.424 55.608 11.944C56.016 11.464 56.472 11.032 56.976 10.648C57.504 10.264 58.068 9.976 58.668 9.784C59.292 9.568 59.928 9.496 60.576 9.568C60.744 9.88 60.888 10.228 61.008 10.612C61.152 10.972 61.284 11.356 61.404 11.764V12.7H56.616ZM76.4084 23.284C76.4084 23.812 76.4204 24.268 76.4444 24.652C76.4684 25.036 76.4924 25.444 76.5164 25.876L79.0004 26.236V26.992C78.4004 27.304 77.7284 27.58 76.9844 27.82C76.2644 28.06 75.5684 28.24 74.8964 28.36H73.9964C73.7564 27.808 73.6124 27.208 73.5644 26.56C73.5164 25.888 73.4804 25.156 73.4564 24.364H73.2764C73.1804 24.844 72.9884 25.336 72.7004 25.84C72.4364 26.32 72.0764 26.752 71.6204 27.136C71.1884 27.52 70.6724 27.832 70.0724 28.072C69.4724 28.312 68.7884 28.432 68.0204 28.432C66.5564 28.432 65.3564 27.988 64.4204 27.1C63.5084 26.212 63.0524 25.048 63.0524 23.608C63.0524 22.504 63.2684 21.604 63.7004 20.908C64.1564 20.188 64.8164 19.624 65.6804 19.216C66.5444 18.808 67.6124 18.52 68.8844 18.352C70.1564 18.16 71.6324 18.016 73.3124 17.92C73.4084 16.888 73.4324 15.964 73.3844 15.148C73.3604 14.308 73.2284 13.6 72.9884 13.024C72.7724 12.424 72.4364 11.968 71.9804 11.656C71.5484 11.32 70.9724 11.152 70.2524 11.152C69.9164 11.152 69.5324 11.176 69.1004 11.224C68.6924 11.248 68.2844 11.344 67.8764 11.512L66.1844 15.832H65.2484C65.0084 15.112 64.7924 14.368 64.6004 13.6C64.4324 12.832 64.3244 12.076 64.2764 11.332C65.1884 10.78 66.1964 10.348 67.3004 10.036C68.4284 9.724 69.6764 9.568 71.0444 9.568C72.2684 9.568 73.2404 9.748 73.9604 10.108C74.7044 10.444 75.2684 10.888 75.6524 11.44C76.0364 11.992 76.2884 12.604 76.4084 13.276C76.5284 13.948 76.5884 14.62 76.5884 15.292C76.5884 16.732 76.5524 18.124 76.4804 19.468C76.4324 20.788 76.4084 22.06 76.4084 23.284ZM69.4604 26.2C70.0604 26.2 70.5884 26.08 71.0444 25.84C71.5004 25.6 71.8844 25.312 72.1964 24.976C72.5084 24.64 72.7604 24.304 72.9524 23.968C73.1444 23.608 73.2764 23.308 73.3484 23.068V19.288C71.9564 19.288 70.8164 19.36 69.9284 19.504C69.0404 19.648 68.3444 19.876 67.8404 20.188C67.3364 20.5 66.9884 20.896 66.7964 21.376C66.6044 21.832 66.5084 22.36 66.5084 22.96C66.5084 23.992 66.7724 24.796 67.3004 25.372C67.8284 25.924 68.5484 26.2 69.4604 26.2ZM88.6082 12.7C88.3442 12.844 88.0082 13.144 87.6002 13.6C87.2162 14.032 86.8682 14.68 86.5562 15.544V26.236C87.0362 26.284 87.5162 26.38 87.9962 26.524C88.4762 26.644 88.9562 26.836 89.4362 27.1V28H80.9402V27.1C81.3722 26.86 81.7802 26.68 82.1642 26.56C82.5482 26.44 82.9322 26.332 83.3162 26.236V12.088L80.9402 11.8V10.864C81.7082 10.528 82.5002 10.264 83.3162 10.072C84.1322 9.856 84.9122 9.688 85.6562 9.568H86.5562V13.384H86.7002C86.9162 12.904 87.2162 12.424 87.6002 11.944C88.0082 11.464 88.4642 11.032 88.9682 10.648C89.4962 10.264 90.0602 9.976 90.6602 9.784C91.2842 9.568 91.9202 9.496 92.5682 9.568C92.7362 9.88 92.8802 10.228 93.0002 10.612C93.1442 10.972 93.2762 11.356 93.3962 11.764V12.7H88.6082ZM103.109 28H95.1166V27.1C95.4766 26.908 95.8486 26.752 96.2326 26.632C96.6166 26.488 97.0366 26.356 97.4926 26.236V12.088L95.1166 11.8V10.864C95.8126 10.576 96.5686 10.324 97.3846 10.108C98.2006 9.892 99.0166 9.712 99.8326 9.568H100.733V26.236C101.213 26.356 101.645 26.488 102.029 26.632C102.413 26.752 102.773 26.908 103.109 27.1V28ZM96.8086 3.88C96.8086 3.232 97.0126 2.716 97.4206 2.332C97.8526 1.948 98.4166 1.756 99.1126 1.756C99.8086 1.756 100.361 1.948 100.769 2.332C101.177 2.716 101.381 3.232 101.381 3.88C101.381 4.528 101.177 5.044 100.769 5.428C100.361 5.788 99.8086 5.968 99.1126 5.968C98.4166 5.968 97.8526 5.788 97.4206 5.428C97.0126 5.044 96.8086 4.528 96.8086 3.88ZM119.229 23.284C119.229 23.812 119.241 24.268 119.265 24.652C119.289 25.036 119.313 25.444 119.337 25.876L121.821 26.236V26.992C121.221 27.304 120.549 27.58 119.805 27.82C119.085 28.06 118.389 28.24 117.717 28.36H116.817C116.577 27.808 116.433 27.208 116.385 26.56C116.337 25.888 116.301 25.156 116.277 24.364H116.097C116.001 24.844 115.809 25.336 115.521 25.84C115.257 26.32 114.897 26.752 114.441 27.136C114.009 27.52 113.493 27.832 112.893 28.072C112.293 28.312 111.609 28.432 110.841 28.432C109.377 28.432 108.177 27.988 107.241 27.1C106.329 26.212 105.873 25.048 105.873 23.608C105.873 22.504 106.089 21.604 106.521 20.908C106.977 20.188 107.637 19.624 108.501 19.216C109.365 18.808 110.433 18.52 111.705 18.352C112.977 18.16 114.453 18.016 116.133 17.92C116.229 16.888 116.253 15.964 116.205 15.148C116.181 14.308 116.049 13.6 115.809 13.024C115.593 12.424 115.257 11.968 114.801 11.656C114.369 11.32 113.793 11.152 113.073 11.152C112.737 11.152 112.353 11.176 111.921 11.224C111.513 11.248 111.105 11.344 110.697 11.512L109.005 15.832H108.069C107.829 15.112 107.613 14.368 107.421 13.6C107.253 12.832 107.145 12.076 107.097 11.332C108.009 10.78 109.017 10.348 110.121 10.036C111.249 9.724 112.497 9.568 113.865 9.568C115.089 9.568 116.061 9.748 116.781 10.108C117.525 10.444 118.089 10.888 118.473 11.44C118.857 11.992 119.109 12.604 119.229 13.276C119.349 13.948 119.409 14.62 119.409 15.292C119.409 16.732 119.373 18.124 119.301 19.468C119.253 20.788 119.229 22.06 119.229 23.284ZM112.281 26.2C112.881 26.2 113.409 26.08 113.865 25.84C114.321 25.6 114.705 25.312 115.017 24.976C115.329 24.64 115.581 24.304 115.773 23.968C115.965 23.608 116.097 23.308 116.169 23.068V19.288C114.777 19.288 113.637 19.36 112.749 19.504C111.861 19.648 111.165 19.876 110.661 20.188C110.157 20.5 109.809 20.896 109.617 21.376C109.425 21.832 109.329 22.36 109.329 22.96C109.329 23.992 109.593 24.796 110.121 25.372C110.649 25.924 111.369 26.2 112.281 26.2ZM152.652 5.212C152.076 5.092 151.524 4.936 150.996 4.744C150.492 4.552 150.036 4.36 149.628 4.168V2.8H158.772V4.168C158.484 4.36 158.1 4.552 157.62 4.744C157.164 4.936 156.684 5.092 156.18 5.212L147.9 28L144.336 28.432L135.048 5.212C134.568 5.092 134.088 4.948 133.608 4.78C133.128 4.588 132.708 4.384 132.348 4.168V2.8H144.336V4.168C143.928 4.36 143.472 4.552 142.968 4.744C142.464 4.936 141.936 5.092 141.384 5.212L146.424 19.396L147.252 22.78H147.324L148.116 19.324L152.652 5.212ZM172.541 22.78C172.541 23.308 172.541 23.764 172.541 24.148C172.565 24.532 172.601 24.94 172.649 25.372L175.133 25.732V26.992C174.845 27.136 174.449 27.28 173.945 27.424C173.465 27.568 172.949 27.712 172.397 27.856C171.869 27.976 171.341 28.072 170.813 28.144C170.285 28.24 169.817 28.312 169.409 28.36H168.185C167.945 27.808 167.801 27.256 167.753 26.704C167.705 26.152 167.669 25.48 167.645 24.688H167.465C167.345 25.168 167.141 25.636 166.853 26.092C166.565 26.524 166.193 26.92 165.737 27.28C165.305 27.616 164.789 27.892 164.189 28.108C163.589 28.324 162.917 28.432 162.173 28.432C161.381 28.432 160.649 28.312 159.977 28.072C159.305 27.832 158.717 27.496 158.213 27.064C157.709 26.632 157.313 26.116 157.025 25.516C156.737 24.892 156.593 24.196 156.593 23.428C156.593 22.348 156.797 21.46 157.205 20.764C157.613 20.068 158.249 19.504 159.113 19.072C160.001 18.616 161.129 18.28 162.497 18.064C163.889 17.848 165.569 17.692 167.537 17.596C167.729 15.532 167.645 14.02 167.285 13.06C166.925 12.1 166.145 11.62 164.945 11.62C164.201 11.62 163.517 11.74 162.893 11.98L161.201 16.3H159.617C159.425 16.012 159.233 15.688 159.041 15.328C158.873 14.944 158.705 14.548 158.537 14.14C158.393 13.708 158.261 13.276 158.141 12.844C158.045 12.412 157.973 11.992 157.925 11.584C158.837 10.96 160.013 10.468 161.453 10.108C162.893 9.748 164.417 9.568 166.025 9.568C167.393 9.568 168.509 9.724 169.373 10.036C170.237 10.324 170.909 10.732 171.389 11.26C171.893 11.764 172.241 12.364 172.433 13.06C172.625 13.756 172.721 14.5 172.721 15.292C172.721 16.732 172.685 18.04 172.613 19.216C172.565 20.368 172.541 21.556 172.541 22.78ZM164.441 25.552C164.945 25.552 165.377 25.456 165.737 25.264C166.097 25.072 166.397 24.844 166.637 24.58C166.901 24.316 167.093 24.028 167.213 23.716C167.357 23.404 167.465 23.128 167.537 22.888V19.288C166.409 19.312 165.485 19.384 164.765 19.504C164.045 19.624 163.481 19.828 163.073 20.116C162.665 20.38 162.377 20.728 162.209 21.16C162.065 21.568 161.993 22.072 161.993 22.672C161.993 23.584 162.209 24.292 162.641 24.796C163.073 25.3 163.673 25.552 164.441 25.552ZM198.412 28H188.872V26.596C189.184 26.428 189.484 26.284 189.772 26.164C190.084 26.02 190.444 25.876 190.852 25.732V17.272C190.852 15.76 190.636 14.584 190.204 13.744C189.772 12.88 189.004 12.448 187.9 12.448C186.988 12.448 186.196 12.748 185.524 13.348C184.876 13.924 184.384 14.716 184.048 15.724V25.732C184.432 25.828 184.768 25.948 185.056 26.092C185.368 26.212 185.692 26.38 186.028 26.596V28H176.488V26.596C177.088 26.284 177.88 25.996 178.864 25.732V12.556L176.488 12.268V10.864C176.8 10.72 177.208 10.588 177.712 10.468C178.216 10.324 178.756 10.192 179.332 10.072C179.932 9.952 180.532 9.856 181.132 9.784C181.756 9.688 182.32 9.616 182.824 9.568H184.048V13.276H184.084C184.588 12.268 185.344 11.404 186.352 10.684C187.36 9.94 188.584 9.568 190.024 9.568C190.96 9.568 191.8 9.688 192.544 9.928C193.288 10.144 193.912 10.54 194.416 11.116C194.944 11.692 195.34 12.472 195.604 13.456C195.892 14.416 196.036 15.64 196.036 17.128V25.732C196.996 25.9 197.788 26.188 198.412 26.596V28ZM201.24 3.916L198.504 3.628V2.224C198.864 2.08 199.332 1.936 199.908 1.792C200.508 1.648 201.12 1.528 201.744 1.432C202.392 1.312 203.016 1.216 203.616 1.144C204.24 1.048 204.768 0.975998 205.2 0.927999H206.424V13.384H206.496C206.976 12.184 207.708 11.248 208.692 10.576C209.676 9.904 210.84 9.568 212.184 9.568C214.296 9.568 215.94 10.3 217.116 11.764C218.292 13.228 218.88 15.448 218.88 18.424C218.88 21.712 218.004 24.184 216.252 25.84C214.524 27.496 211.98 28.324 208.62 28.324C208.02 28.324 207.348 28.276 206.604 28.18C205.86 28.108 205.14 28.012 204.444 27.892C203.748 27.772 203.1 27.628 202.5 27.46C201.924 27.292 201.504 27.124 201.24 26.956V3.916ZM209.844 12.448C208.932 12.448 208.2 12.784 207.648 13.456C207.096 14.104 206.688 14.932 206.424 15.94V25.48C206.76 25.72 207.168 25.912 207.648 26.056C208.152 26.2 208.716 26.272 209.34 26.272C210.708 26.272 211.704 25.66 212.328 24.436C212.976 23.212 213.3 21.292 213.3 18.676C213.3 16.78 213.036 15.268 212.508 14.14C212.004 13.012 211.116 12.448 209.844 12.448ZM221.108 19C221.108 17.536 221.324 16.228 221.756 15.076C222.212 13.9 222.848 12.904 223.664 12.088C224.504 11.272 225.512 10.648 226.688 10.216C227.864 9.784 229.196 9.568 230.684 9.568C232.364 9.568 233.804 9.808 235.004 10.288C236.228 10.744 237.224 11.392 237.992 12.232C238.784 13.048 239.36 14.044 239.72 15.22C240.08 16.372 240.26 17.632 240.26 19C240.26 20.464 240.044 21.784 239.612 22.96C239.18 24.112 238.544 25.096 237.704 25.912C236.888 26.728 235.88 27.352 234.68 27.784C233.504 28.216 232.172 28.432 230.684 28.432C229.052 28.432 227.636 28.204 226.436 27.748C225.236 27.268 224.24 26.62 223.448 25.804C222.656 24.964 222.068 23.968 221.684 22.816C221.3 21.64 221.108 20.368 221.108 19ZM226.688 19C226.688 20.08 226.748 21.076 226.868 21.988C227.012 22.876 227.252 23.632 227.588 24.256C227.924 24.88 228.38 25.372 228.956 25.732C229.532 26.068 230.276 26.236 231.188 26.236C231.716 26.236 232.196 26.116 232.628 25.876C233.06 25.612 233.432 25.204 233.744 24.652C234.056 24.076 234.284 23.332 234.428 22.42C234.596 21.484 234.68 20.344 234.68 19C234.68 17.896 234.608 16.9 234.464 16.012C234.344 15.124 234.116 14.368 233.78 13.744C233.468 13.12 233.036 12.64 232.484 12.304C231.932 11.944 231.236 11.764 230.396 11.764C229.772 11.764 229.232 11.896 228.776 12.16C228.32 12.4 227.936 12.808 227.624 13.384C227.312 13.936 227.072 14.68 226.904 15.616C226.76 16.528 226.688 17.656 226.688 19ZM242.483 19C242.483 17.536 242.699 16.228 243.131 15.076C243.587 13.9 244.223 12.904 245.039 12.088C245.879 11.272 246.887 10.648 248.063 10.216C249.239 9.784 250.571 9.568 252.059 9.568C253.739 9.568 255.179 9.808 256.379 10.288C257.603 10.744 258.599 11.392 259.367 12.232C260.159 13.048 260.735 14.044 261.095 15.22C261.455 16.372 261.635 17.632 261.635 19C261.635 20.464 261.419 21.784 260.987 22.96C260.555 24.112 259.919 25.096 259.079 25.912C258.263 26.728 257.255 27.352 256.055 27.784C254.879 28.216 253.547 28.432 252.059 28.432C250.427 28.432 249.011 28.204 247.811 27.748C246.611 27.268 245.615 26.62 244.823 25.804C244.031 24.964 243.443 23.968 243.059 22.816C242.675 21.64 242.483 20.368 242.483 19ZM248.063 19C248.063 20.08 248.123 21.076 248.243 21.988C248.387 22.876 248.627 23.632 248.963 24.256C249.299 24.88 249.755 25.372 250.331 25.732C250.907 26.068 251.651 26.236 252.563 26.236C253.091 26.236 253.571 26.116 254.003 25.876C254.435 25.612 254.807 25.204 255.119 24.652C255.431 24.076 255.659 23.332 255.803 22.42C255.971 21.484 256.055 20.344 256.055 19C256.055 17.896 255.983 16.9 255.839 16.012C255.719 15.124 255.491 14.368 255.155 13.744C254.843 13.12 254.411 12.64 253.859 12.304C253.307 11.944 252.611 11.764 251.771 11.764C251.147 11.764 250.607 11.896 250.151 12.16C249.695 12.4 249.311 12.808 248.999 13.384C248.687 13.936 248.447 14.68 248.279 15.616C248.135 16.528 248.063 17.656 248.063 19ZM274.334 10H282.758V11.404C282.302 11.596 281.87 11.764 281.462 11.908C281.078 12.052 280.646 12.172 280.166 12.268C279.806 12.748 279.41 13.228 278.978 13.708C278.57 14.164 278.15 14.608 277.718 15.04C277.31 15.472 276.914 15.892 276.53 16.3C276.146 16.684 275.798 17.032 275.486 17.344C275.846 17.824 276.266 18.4 276.746 19.072C277.226 19.744 277.742 20.464 278.294 21.232C278.846 21.976 279.422 22.744 280.022 23.536C280.646 24.304 281.27 25.036 281.894 25.732L283.73 26.596V28H277.646L276.674 27.136C276.122 26.392 275.63 25.696 275.198 25.048C274.79 24.4 274.418 23.776 274.082 23.176C273.746 22.576 273.422 22 273.11 21.448C272.798 20.872 272.486 20.308 272.174 19.756L270.986 19.396V25.732C271.394 25.804 271.766 25.912 272.102 26.056C272.438 26.2 272.798 26.38 273.182 26.596V28H263.426V26.596C264.218 26.212 265.01 25.924 265.802 25.732V3.916L263.066 3.628V2.224C263.402 2.08 263.858 1.936 264.434 1.792C265.01 1.648 265.622 1.528 266.27 1.432C266.918 1.312 267.554 1.216 268.178 1.144C268.802 1.048 269.33 0.975998 269.762 0.927999H270.986V17.812H271.922C272.714 16.972 273.446 16.048 274.118 15.04C274.814 14.032 275.426 13.108 275.954 12.268C275.642 12.172 275.354 12.052 275.09 11.908C274.85 11.764 274.598 11.596 274.334 11.404V10Z" fill="#8F151B"/>
</svg>
