<svg width="286" height="29" viewBox="0 0 286 29" fill="none" xmlns="http://www.w3.org/2000/svg">
<path d="M1.044 2.8H10.908V3.844C10.332 4.06 9.756 4.252 9.18 4.42C8.604 4.564 8.028 4.672 7.452 4.744V26.128H15.732L17.856 20.332H18.792C18.864 20.836 18.924 21.424 18.972 22.096C19.044 22.744 19.092 23.428 19.116 24.148C19.164 24.844 19.188 25.528 19.188 26.2C19.188 26.872 19.176 27.472 19.152 28H1.044V26.956C1.62 26.692 2.148 26.5 2.628 26.38C3.108 26.26 3.564 26.164 3.996 26.092V4.744C3.444 4.648 2.916 4.528 2.412 4.384C1.908 4.216 1.452 4.036 1.044 3.844V2.8ZM29.2258 28H21.2338V27.1C21.5938 26.908 21.9658 26.752 22.3498 26.632C22.7338 26.488 23.1538 26.356 23.6098 26.236V12.088L21.2338 11.8V10.864C21.9298 10.576 22.6858 10.324 23.5018 10.108C24.3178 9.892 25.1338 9.712 25.9498 9.568H26.8498V26.236C27.3298 26.356 27.7618 26.488 28.1458 26.632C28.5298 26.752 28.8898 26.908 29.2258 27.1V28ZM22.9258 3.88C22.9258 3.232 23.1298 2.716 23.5378 2.332C23.9698 1.948 24.5338 1.756 25.2298 1.756C25.9258 1.756 26.4778 1.948 26.8858 2.332C27.2938 2.716 27.4978 3.232 27.4978 3.88C27.4978 4.528 27.2938 5.044 26.8858 5.428C26.4778 5.788 25.9258 5.968 25.2298 5.968C24.5338 5.968 23.9698 5.788 23.5378 5.428C23.1298 5.044 22.9258 4.528 22.9258 3.88ZM39.1539 28.432L32.1339 11.8C31.4379 11.56 30.8019 11.272 30.2259 10.936V10H37.7499V10.9C37.4379 11.068 37.1139 11.236 36.7779 11.404C36.4659 11.548 36.1059 11.68 35.6979 11.8L39.8739 22.636L40.5939 24.868H40.6659L41.2059 22.6L45.0579 11.8C44.6739 11.704 44.3139 11.584 43.9779 11.44C43.6659 11.296 43.3659 11.128 43.0779 10.936V10H49.1979V10.936C48.9579 11.104 48.6579 11.26 48.2979 11.404C47.9619 11.548 47.5779 11.68 47.1459 11.8L40.7739 28L39.1539 28.432ZM57.616 12.7C57.352 12.844 57.016 13.144 56.608 13.6C56.224 14.032 55.876 14.68 55.564 15.544V26.236C56.044 26.284 56.524 26.38 57.004 26.524C57.484 26.644 57.964 26.836 58.444 27.1V28H49.948V27.1C50.38 26.86 50.788 26.68 51.172 26.56C51.556 26.44 51.94 26.332 52.324 26.236V12.088L49.948 11.8V10.864C50.716 10.528 51.508 10.264 52.324 10.072C53.14 9.856 53.92 9.688 54.664 9.568H55.564V13.384H55.708C55.924 12.904 56.224 12.424 56.608 11.944C57.016 11.464 57.472 11.032 57.976 10.648C58.504 10.264 59.068 9.976 59.668 9.784C60.292 9.568 60.928 9.496 61.576 9.568C61.744 9.88 61.888 10.228 62.008 10.612C62.152 10.972 62.284 11.356 62.404 11.764V12.7H57.616ZM77.4084 23.284C77.4084 23.812 77.4204 24.268 77.4444 24.652C77.4684 25.036 77.4924 25.444 77.5164 25.876L80.0004 26.236V26.992C79.4004 27.304 78.7284 27.58 77.9844 27.82C77.2644 28.06 76.5684 28.24 75.8964 28.36H74.9964C74.7564 27.808 74.6124 27.208 74.5644 26.56C74.5164 25.888 74.4804 25.156 74.4564 24.364H74.2764C74.1804 24.844 73.9884 25.336 73.7004 25.84C73.4364 26.32 73.0764 26.752 72.6204 27.136C72.1884 27.52 71.6724 27.832 71.0724 28.072C70.4724 28.312 69.7884 28.432 69.0204 28.432C67.5564 28.432 66.3564 27.988 65.4204 27.1C64.5084 26.212 64.0524 25.048 64.0524 23.608C64.0524 22.504 64.2684 21.604 64.7004 20.908C65.1564 20.188 65.8164 19.624 66.6804 19.216C67.5444 18.808 68.6124 18.52 69.8844 18.352C71.1564 18.16 72.6324 18.016 74.3124 17.92C74.4084 16.888 74.4324 15.964 74.3844 15.148C74.3604 14.308 74.2284 13.6 73.9884 13.024C73.7724 12.424 73.4364 11.968 72.9804 11.656C72.5484 11.32 71.9724 11.152 71.2524 11.152C70.9164 11.152 70.5324 11.176 70.1004 11.224C69.6924 11.248 69.2844 11.344 68.8764 11.512L67.1844 15.832H66.2484C66.0084 15.112 65.7924 14.368 65.6004 13.6C65.4324 12.832 65.3244 12.076 65.2764 11.332C66.1884 10.78 67.1964 10.348 68.3004 10.036C69.4284 9.724 70.6764 9.568 72.0444 9.568C73.2684 9.568 74.2404 9.748 74.9604 10.108C75.7044 10.444 76.2684 10.888 76.6524 11.44C77.0364 11.992 77.2884 12.604 77.4084 13.276C77.5284 13.948 77.5884 14.62 77.5884 15.292C77.5884 16.732 77.5524 18.124 77.4804 19.468C77.4324 20.788 77.4084 22.06 77.4084 23.284ZM70.4604 26.2C71.0604 26.2 71.5884 26.08 72.0444 25.84C72.5004 25.6 72.8844 25.312 73.1964 24.976C73.5084 24.64 73.7604 24.304 73.9524 23.968C74.1444 23.608 74.2764 23.308 74.3484 23.068V19.288C72.9564 19.288 71.8164 19.36 70.9284 19.504C70.0404 19.648 69.3444 19.876 68.8404 20.188C68.3364 20.5 67.9884 20.896 67.7964 21.376C67.6044 21.832 67.5084 22.36 67.5084 22.96C67.5084 23.992 67.7724 24.796 68.3004 25.372C68.8284 25.924 69.5484 26.2 70.4604 26.2ZM89.6082 12.7C89.3442 12.844 89.0082 13.144 88.6002 13.6C88.2162 14.032 87.8682 14.68 87.5562 15.544V26.236C88.0362 26.284 88.5162 26.38 88.9962 26.524C89.4762 26.644 89.9562 26.836 90.4362 27.1V28H81.9402V27.1C82.3722 26.86 82.7802 26.68 83.1642 26.56C83.5482 26.44 83.9322 26.332 84.3162 26.236V12.088L81.9402 11.8V10.864C82.7082 10.528 83.5002 10.264 84.3162 10.072C85.1322 9.856 85.9122 9.688 86.6562 9.568H87.5562V13.384H87.7002C87.9162 12.904 88.2162 12.424 88.6002 11.944C89.0082 11.464 89.4642 11.032 89.9682 10.648C90.4962 10.264 91.0602 9.976 91.6602 9.784C92.2842 9.568 92.9202 9.496 93.5682 9.568C93.7362 9.88 93.8802 10.228 94.0002 10.612C94.1442 10.972 94.2762 11.356 94.3962 11.764V12.7H89.6082ZM104.109 28H96.1166V27.1C96.4766 26.908 96.8486 26.752 97.2326 26.632C97.6166 26.488 98.0366 26.356 98.4926 26.236V12.088L96.1166 11.8V10.864C96.8126 10.576 97.5686 10.324 98.3846 10.108C99.2006 9.892 100.017 9.712 100.833 9.568H101.733V26.236C102.213 26.356 102.645 26.488 103.029 26.632C103.413 26.752 103.773 26.908 104.109 27.1V28ZM97.8086 3.88C97.8086 3.232 98.0126 2.716 98.4206 2.332C98.8526 1.948 99.4166 1.756 100.113 1.756C100.809 1.756 101.361 1.948 101.769 2.332C102.177 2.716 102.381 3.232 102.381 3.88C102.381 4.528 102.177 5.044 101.769 5.428C101.361 5.788 100.809 5.968 100.113 5.968C99.4166 5.968 98.8526 5.788 98.4206 5.428C98.0126 5.044 97.8086 4.528 97.8086 3.88ZM120.229 23.284C120.229 23.812 120.241 24.268 120.265 24.652C120.289 25.036 120.313 25.444 120.337 25.876L122.821 26.236V26.992C122.221 27.304 121.549 27.58 120.805 27.82C120.085 28.06 119.389 28.24 118.717 28.36H117.817C117.577 27.808 117.433 27.208 117.385 26.56C117.337 25.888 117.301 25.156 117.277 24.364H117.097C117.001 24.844 116.809 25.336 116.521 25.84C116.257 26.32 115.897 26.752 115.441 27.136C115.009 27.52 114.493 27.832 113.893 28.072C113.293 28.312 112.609 28.432 111.841 28.432C110.377 28.432 109.177 27.988 108.241 27.1C107.329 26.212 106.873 25.048 106.873 23.608C106.873 22.504 107.089 21.604 107.521 20.908C107.977 20.188 108.637 19.624 109.501 19.216C110.365 18.808 111.433 18.52 112.705 18.352C113.977 18.16 115.453 18.016 117.133 17.92C117.229 16.888 117.253 15.964 117.205 15.148C117.181 14.308 117.049 13.6 116.809 13.024C116.593 12.424 116.257 11.968 115.801 11.656C115.369 11.32 114.793 11.152 114.073 11.152C113.737 11.152 113.353 11.176 112.921 11.224C112.513 11.248 112.105 11.344 111.697 11.512L110.005 15.832H109.069C108.829 15.112 108.613 14.368 108.421 13.6C108.253 12.832 108.145 12.076 108.097 11.332C109.009 10.78 110.017 10.348 111.121 10.036C112.249 9.724 113.497 9.568 114.865 9.568C116.089 9.568 117.061 9.748 117.781 10.108C118.525 10.444 119.089 10.888 119.473 11.44C119.857 11.992 120.109 12.604 120.229 13.276C120.349 13.948 120.409 14.62 120.409 15.292C120.409 16.732 120.373 18.124 120.301 19.468C120.253 20.788 120.229 22.06 120.229 23.284ZM113.281 26.2C113.881 26.2 114.409 26.08 114.865 25.84C115.321 25.6 115.705 25.312 116.017 24.976C116.329 24.64 116.581 24.304 116.773 23.968C116.965 23.608 117.097 23.308 117.169 23.068V19.288C115.777 19.288 114.637 19.36 113.749 19.504C112.861 19.648 112.165 19.876 111.661 20.188C111.157 20.5 110.809 20.896 110.617 21.376C110.425 21.832 110.329 22.36 110.329 22.96C110.329 23.992 110.593 24.796 111.121 25.372C111.649 25.924 112.369 26.2 113.281 26.2ZM153.652 5.212C153.076 5.092 152.524 4.936 151.996 4.744C151.492 4.552 151.036 4.36 150.628 4.168V2.8H159.772V4.168C159.484 4.36 159.1 4.552 158.62 4.744C158.164 4.936 157.684 5.092 157.18 5.212L148.9 28L145.336 28.432L136.048 5.212C135.568 5.092 135.088 4.948 134.608 4.78C134.128 4.588 133.708 4.384 133.348 4.168V2.8H145.336V4.168C144.928 4.36 144.472 4.552 143.968 4.744C143.464 4.936 142.936 5.092 142.384 5.212L147.424 19.396L148.252 22.78H148.324L149.116 19.324L153.652 5.212ZM173.541 22.78C173.541 23.308 173.541 23.764 173.541 24.148C173.565 24.532 173.601 24.94 173.649 25.372L176.133 25.732V26.992C175.845 27.136 175.449 27.28 174.945 27.424C174.465 27.568 173.949 27.712 173.397 27.856C172.869 27.976 172.341 28.072 171.813 28.144C171.285 28.24 170.817 28.312 170.409 28.36H169.185C168.945 27.808 168.801 27.256 168.753 26.704C168.705 26.152 168.669 25.48 168.645 24.688H168.465C168.345 25.168 168.141 25.636 167.853 26.092C167.565 26.524 167.193 26.92 166.737 27.28C166.305 27.616 165.789 27.892 165.189 28.108C164.589 28.324 163.917 28.432 163.173 28.432C162.381 28.432 161.649 28.312 160.977 28.072C160.305 27.832 159.717 27.496 159.213 27.064C158.709 26.632 158.313 26.116 158.025 25.516C157.737 24.892 157.593 24.196 157.593 23.428C157.593 22.348 157.797 21.46 158.205 20.764C158.613 20.068 159.249 19.504 160.113 19.072C161.001 18.616 162.129 18.28 163.497 18.064C164.889 17.848 166.569 17.692 168.537 17.596C168.729 15.532 168.645 14.02 168.285 13.06C167.925 12.1 167.145 11.62 165.945 11.62C165.201 11.62 164.517 11.74 163.893 11.98L162.201 16.3H160.617C160.425 16.012 160.233 15.688 160.041 15.328C159.873 14.944 159.705 14.548 159.537 14.14C159.393 13.708 159.261 13.276 159.141 12.844C159.045 12.412 158.973 11.992 158.925 11.584C159.837 10.96 161.013 10.468 162.453 10.108C163.893 9.748 165.417 9.568 167.025 9.568C168.393 9.568 169.509 9.724 170.373 10.036C171.237 10.324 171.909 10.732 172.389 11.26C172.893 11.764 173.241 12.364 173.433 13.06C173.625 13.756 173.721 14.5 173.721 15.292C173.721 16.732 173.685 18.04 173.613 19.216C173.565 20.368 173.541 21.556 173.541 22.78ZM165.441 25.552C165.945 25.552 166.377 25.456 166.737 25.264C167.097 25.072 167.397 24.844 167.637 24.58C167.901 24.316 168.093 24.028 168.213 23.716C168.357 23.404 168.465 23.128 168.537 22.888V19.288C167.409 19.312 166.485 19.384 165.765 19.504C165.045 19.624 164.481 19.828 164.073 20.116C163.665 20.38 163.377 20.728 163.209 21.16C163.065 21.568 162.993 22.072 162.993 22.672C162.993 23.584 163.209 24.292 163.641 24.796C164.073 25.3 164.673 25.552 165.441 25.552ZM199.412 28H189.872V26.596C190.184 26.428 190.484 26.284 190.772 26.164C191.084 26.02 191.444 25.876 191.852 25.732V17.272C191.852 15.76 191.636 14.584 191.204 13.744C190.772 12.88 190.004 12.448 188.9 12.448C187.988 12.448 187.196 12.748 186.524 13.348C185.876 13.924 185.384 14.716 185.048 15.724V25.732C185.432 25.828 185.768 25.948 186.056 26.092C186.368 26.212 186.692 26.38 187.028 26.596V28H177.488V26.596C178.088 26.284 178.88 25.996 179.864 25.732V12.556L177.488 12.268V10.864C177.8 10.72 178.208 10.588 178.712 10.468C179.216 10.324 179.756 10.192 180.332 10.072C180.932 9.952 181.532 9.856 182.132 9.784C182.756 9.688 183.32 9.616 183.824 9.568H185.048V13.276H185.084C185.588 12.268 186.344 11.404 187.352 10.684C188.36 9.94 189.584 9.568 191.024 9.568C191.96 9.568 192.8 9.688 193.544 9.928C194.288 10.144 194.912 10.54 195.416 11.116C195.944 11.692 196.34 12.472 196.604 13.456C196.892 14.416 197.036 15.64 197.036 17.128V25.732C197.996 25.9 198.788 26.188 199.412 26.596V28ZM202.24 3.916L199.504 3.628V2.224C199.864 2.08 200.332 1.936 200.908 1.792C201.508 1.648 202.12 1.528 202.744 1.432C203.392 1.312 204.016 1.216 204.616 1.144C205.24 1.048 205.768 0.975998 206.2 0.927999H207.424V13.384H207.496C207.976 12.184 208.708 11.248 209.692 10.576C210.676 9.904 211.84 9.568 213.184 9.568C215.296 9.568 216.94 10.3 218.116 11.764C219.292 13.228 219.88 15.448 219.88 18.424C219.88 21.712 219.004 24.184 217.252 25.84C215.524 27.496 212.98 28.324 209.62 28.324C209.02 28.324 208.348 28.276 207.604 28.18C206.86 28.108 206.14 28.012 205.444 27.892C204.748 27.772 204.1 27.628 203.5 27.46C202.924 27.292 202.504 27.124 202.24 26.956V3.916ZM210.844 12.448C209.932 12.448 209.2 12.784 208.648 13.456C208.096 14.104 207.688 14.932 207.424 15.94V25.48C207.76 25.72 208.168 25.912 208.648 26.056C209.152 26.2 209.716 26.272 210.34 26.272C211.708 26.272 212.704 25.66 213.328 24.436C213.976 23.212 214.3 21.292 214.3 18.676C214.3 16.78 214.036 15.268 213.508 14.14C213.004 13.012 212.116 12.448 210.844 12.448ZM222.108 19C222.108 17.536 222.324 16.228 222.756 15.076C223.212 13.9 223.848 12.904 224.664 12.088C225.504 11.272 226.512 10.648 227.688 10.216C228.864 9.784 230.196 9.568 231.684 9.568C233.364 9.568 234.804 9.808 236.004 10.288C237.228 10.744 238.224 11.392 238.992 12.232C239.784 13.048 240.36 14.044 240.72 15.22C241.08 16.372 241.26 17.632 241.26 19C241.26 20.464 241.044 21.784 240.612 22.96C240.18 24.112 239.544 25.096 238.704 25.912C237.888 26.728 236.88 27.352 235.68 27.784C234.504 28.216 233.172 28.432 231.684 28.432C230.052 28.432 228.636 28.204 227.436 27.748C226.236 27.268 225.24 26.62 224.448 25.804C223.656 24.964 223.068 23.968 222.684 22.816C222.3 21.64 222.108 20.368 222.108 19ZM227.688 19C227.688 20.08 227.748 21.076 227.868 21.988C228.012 22.876 228.252 23.632 228.588 24.256C228.924 24.88 229.38 25.372 229.956 25.732C230.532 26.068 231.276 26.236 232.188 26.236C232.716 26.236 233.196 26.116 233.628 25.876C234.06 25.612 234.432 25.204 234.744 24.652C235.056 24.076 235.284 23.332 235.428 22.42C235.596 21.484 235.68 20.344 235.68 19C235.68 17.896 235.608 16.9 235.464 16.012C235.344 15.124 235.116 14.368 234.78 13.744C234.468 13.12 234.036 12.64 233.484 12.304C232.932 11.944 232.236 11.764 231.396 11.764C230.772 11.764 230.232 11.896 229.776 12.16C229.32 12.4 228.936 12.808 228.624 13.384C228.312 13.936 228.072 14.68 227.904 15.616C227.76 16.528 227.688 17.656 227.688 19ZM243.483 19C243.483 17.536 243.699 16.228 244.131 15.076C244.587 13.9 245.223 12.904 246.039 12.088C246.879 11.272 247.887 10.648 249.063 10.216C250.239 9.784 251.571 9.568 253.059 9.568C254.739 9.568 256.179 9.808 257.379 10.288C258.603 10.744 259.599 11.392 260.367 12.232C261.159 13.048 261.735 14.044 262.095 15.22C262.455 16.372 262.635 17.632 262.635 19C262.635 20.464 262.419 21.784 261.987 22.96C261.555 24.112 260.919 25.096 260.079 25.912C259.263 26.728 258.255 27.352 257.055 27.784C255.879 28.216 254.547 28.432 253.059 28.432C251.427 28.432 250.011 28.204 248.811 27.748C247.611 27.268 246.615 26.62 245.823 25.804C245.031 24.964 244.443 23.968 244.059 22.816C243.675 21.64 243.483 20.368 243.483 19ZM249.063 19C249.063 20.08 249.123 21.076 249.243 21.988C249.387 22.876 249.627 23.632 249.963 24.256C250.299 24.88 250.755 25.372 251.331 25.732C251.907 26.068 252.651 26.236 253.563 26.236C254.091 26.236 254.571 26.116 255.003 25.876C255.435 25.612 255.807 25.204 256.119 24.652C256.431 24.076 256.659 23.332 256.803 22.42C256.971 21.484 257.055 20.344 257.055 19C257.055 17.896 256.983 16.9 256.839 16.012C256.719 15.124 256.491 14.368 256.155 13.744C255.843 13.12 255.411 12.64 254.859 12.304C254.307 11.944 253.611 11.764 252.771 11.764C252.147 11.764 251.607 11.896 251.151 12.16C250.695 12.4 250.311 12.808 249.999 13.384C249.687 13.936 249.447 14.68 249.279 15.616C249.135 16.528 249.063 17.656 249.063 19ZM275.334 10H283.758V11.404C283.302 11.596 282.87 11.764 282.462 11.908C282.078 12.052 281.646 12.172 281.166 12.268C280.806 12.748 280.41 13.228 279.978 13.708C279.57 14.164 279.15 14.608 278.718 15.04C278.31 15.472 277.914 15.892 277.53 16.3C277.146 16.684 276.798 17.032 276.486 17.344C276.846 17.824 277.266 18.4 277.746 19.072C278.226 19.744 278.742 20.464 279.294 21.232C279.846 21.976 280.422 22.744 281.022 23.536C281.646 24.304 282.27 25.036 282.894 25.732L284.73 26.596V28H278.646L277.674 27.136C277.122 26.392 276.63 25.696 276.198 25.048C275.79 24.4 275.418 23.776 275.082 23.176C274.746 22.576 274.422 22 274.11 21.448C273.798 20.872 273.486 20.308 273.174 19.756L271.986 19.396V25.732C272.394 25.804 272.766 25.912 273.102 26.056C273.438 26.2 273.798 26.38 274.182 26.596V28H264.426V26.596C265.218 26.212 266.01 25.924 266.802 25.732V3.916L264.066 3.628V2.224C264.402 2.08 264.858 1.936 265.434 1.792C266.01 1.648 266.622 1.528 267.27 1.432C267.918 1.312 268.554 1.216 269.178 1.144C269.802 1.048 270.33 0.975998 270.762 0.927999H271.986V17.812H272.922C273.714 16.972 274.446 16.048 275.118 15.04C275.814 14.032 276.426 13.108 276.954 12.268C276.642 12.172 276.354 12.052 276.09 11.908C275.85 11.764 275.598 11.596 275.334 11.404V10Z" fill="#EFF0F2"/>
</svg>
