<svg width="43" height="43" viewBox="0 0 43 43" fill="none" xmlns="http://www.w3.org/2000/svg">
<g clip-path="url(#clip0)">
<path d="M42.9176 8.18621C41.332 8.88317 39.6388 9.35796 37.8561 9.57475C39.6729 8.48004 41.0704 6.75467 41.7315 4.69604C40.0276 5.69042 38.1392 6.41425 36.129 6.81738C34.5236 5.09917 32.2357 4.02417 29.6951 4.02417C24.8271 4.02417 20.8801 7.97121 20.8801 12.8338C20.8801 13.5325 20.9607 14.2044 21.1076 14.8476C13.7797 14.5018 7.28492 10.983 2.93833 5.66354C2.17329 6.95713 1.74508 8.46034 1.74508 10.0979C1.74508 13.1617 3.30383 15.8545 5.66525 17.4366C4.21937 17.39 2.8595 16.9923 1.67342 16.3329V16.4422C1.67342 20.7153 4.70671 24.279 8.74333 25.0906C8.00338 25.2895 7.22221 25.397 6.42133 25.397C5.85875 25.397 5.31946 25.3432 4.78017 25.2429C5.91071 28.742 9.16079 31.2933 13.029 31.365C10.019 33.7282 6.20454 35.1365 2.09625 35.1365C1.3975 35.1365 0.700542 35.0952 0 35.0164C3.92196 37.514 8.54267 38.9742 13.5396 38.9742C29.7614 38.9742 38.6212 25.5439 38.6212 13.916C38.6212 13.5415 38.6212 13.1635 38.5943 12.7872C40.3161 11.5528 41.8193 9.99221 43.0018 8.22204L42.9176 8.18621Z" fill="#EFF0F2"/>
</g>
<defs>
<clipPath id="clip0">
<rect width="43" height="43" fill="white"/>
</clipPath>
</defs>
</svg>
